<?xml version="1.0" standalone="no"?><!DOCTYPE svg PUBLIC "-//W3C//DTD SVG 1.1//EN" "http://www.w3.org/Graphics/SVG/1.1/DTD/svg11.dtd"><svg t="1625724716531" class="icon" viewBox="0 0 1236 1024" version="1.1" xmlns="http://www.w3.org/2000/svg" p-id="3728" xmlns:xlink="http://www.w3.org/1999/xlink" width="144.84375" height="120"><defs><style type="text/css"></style></defs><path d="M1064.043697 623.941854a50.138185 50.138185 0 1 1 50.138184-50.138185 50.138185 50.138185 0 0 1-50.138184 50.138185z m-189.41092 0a50.138185 50.138185 0 1 1 50.138185-50.138185 50.138185 50.138185 0 0 1-50.138185 50.138185z m-200.552739 0a50.138185 50.138185 0 1 1 50.138185-50.138185 50.138185 50.138185 0 0 1-50.138185 50.138185z" p-id="3729"></path><path d="M1169.890976 811.792919H1040.311623c18.718256 54.09353 48.021239 139.083324 66.850913 193.867647 5.125237 16.890997-2.116946 27.030052-33.091202 8.133528-62.282767-54.149239-167.015864-145.144474-232.418341-201.990033H490.240028a66.77292 66.77292 0 0 1-55.37484-29.380977c-81.892368 71.67532-177.154919 155.016125-235.538049 206.123649-32.311275 40.043697-62.282767 10.027637-30.974257-20.768351 24.512001-71.719888 62.951276-183.572607 87.240442-254.668552H66.850913a66.850913 66.850913 0 0 1-66.850913-66.850913V66.850913a66.850913 66.850913 0 0 1 66.850913-66.850913h924.770962a66.850913 66.850913 0 0 1 66.850912 66.850913v200.552739h111.418189a66.850913 66.850913 0 0 1 66.850912 66.850912v410.687442a66.850913 66.850913 0 0 1-66.850912 66.850913zM991.621875 111.418188a44.567275 44.567275 0 0 0-44.567276-44.567275H111.418188a44.567275 44.567275 0 0 0-44.567275 44.567275v490.240028a44.567275 44.567275 0 0 0 44.567275 44.567275h222.836376l-77.992731 222.836377 167.127282-151.929842V334.254564a66.850913 66.850913 0 0 1 66.850913-66.850912h501.381847V111.418188z m193.756229 251.593411a44.567275 44.567275 0 0 0-44.567276-44.567275H519.320175a44.567275 44.567275 0 0 0-44.567275 44.567275v353.195656a44.567275 44.567275 0 0 0 44.567275 44.567275h332.137619l179.828956 153.099733-51.363785-153.099733h160.887863a44.567275 44.567275 0 0 0 44.567276-44.567275v-353.195656zM1030.61824 579.374578a50.138185 50.138185 0 1 1 50.138185-50.138184 50.138185 50.138185 0 0 1-50.138185 50.138184z m-189.410919 0a50.138185 50.138185 0 1 1 50.138184-50.138184 50.138185 50.138185 0 0 1-50.138184 50.138184z m-200.552739 0a50.138185 50.138185 0 1 1 50.138185-50.138184 50.138185 50.138185 0 0 1-50.138185 50.138184z m-345.396383-144.843644a61.280003 61.280003 0 1 1 61.280003-61.280004 61.280003 61.280003 0 0 1-61.280003 61.280004z" p-id="3730"></path></svg><svg t="1625716167365" class="icon" viewBox="0 0 1024 1024" version="1.1" xmlns="http://www.w3.org/2000/svg" p-id="4079" width="200" height="200"><path d="M448 448a64 62.4 0 1 0 128 0 64 62.4 0 1 0-128 0Z" fill="" p-id="4080"></path><path d="M213.2 448a64 62.4 0 1 0 128 0 64 62.4 0 1 0-128 0Z" fill="" p-id="4081"></path><path d="M682.5 448a64 62.4 0 1 0 128 0 64 62.4 0 1 0-128 0Z" fill="" p-id="4082"></path><path d="M359.4 939c-9.6 0-19.1-4.3-25.4-12.5-10.8-14-8.2-34.1 5.8-44.9L563.6 709H872c48.5 0 88-39.5 88-88V237c0-48.5-39.5-88-88-88H152c-48.5 0-88 39.5-88 88v384c0 48.5 39.5 88 88 88h69.6c17.7 0 32 14.3 32 32s-14.3 32-32 32H152C68.2 773 0 704.9 0 621V237C0 153.2 68.2 85 152 85h720c83.8 0 152 68.2 152 152v384c0 83.8-68.2 152-152 152H585.5L378.9 932.3c-5.8 4.5-12.7 6.6-19.5 6.7z" fill="" p-id="4083"></path></svg>